<?xml version="1.0" encoding="UTF-8"?>
<svg id="OperativeAI" xmlns="http://www.w3.org/2000/svg" viewBox="0 0 737.4 179.81">
  <circle cx="89.91" cy="89.91" r="75.41" fill="none" stroke="#000" stroke-miterlimit="100" stroke-width="29"/>
  <path d="m134.58,138.56l-24.87,14.36c-12.25,7.07-27.35,7.07-39.6,0l-24.87-14.36c-12.25-7.07-19.8-20.15-19.8-34.29v-28.72c0-14.15,7.55-27.22,19.8-34.29l24.87-14.36c12.25-7.07,27.35-7.07,39.6,0l24.87,14.36c12.25,7.07,19.8,20.15,19.8,34.29v28.72c0,14.15-7.55,27.22-19.8,34.29Z" fill="none" fill-rule="evenodd" stroke="#000" stroke-miterlimit="100" stroke-width="38"/>
  <g>
    <path d="m285.27,90.53c0,5.42-.86,10.4-2.58,14.92-1.72,4.53-4.14,8.43-7.27,11.69-3.13,3.27-6.89,5.8-11.29,7.6-4.39,1.8-9.25,2.7-14.57,2.7s-10.17-.9-14.54-2.7c-4.38-1.8-8.13-4.33-11.26-7.6-3.13-3.27-5.56-7.16-7.27-11.69-1.72-4.53-2.58-9.5-2.58-14.92s.86-10.39,2.58-14.92c1.72-4.53,4.14-8.43,7.27-11.72,3.13-3.28,6.88-5.83,11.26-7.65,4.38-1.82,9.22-2.73,14.54-2.73s10.18.91,14.57,2.73c4.39,1.82,8.16,4.37,11.29,7.65,3.13,3.28,5.56,7.19,7.27,11.72,1.72,4.53,2.58,9.5,2.58,14.92Zm-10.05,0c0-4.44-.61-8.43-1.82-11.97-1.21-3.54-2.93-6.52-5.15-8.96-2.22-2.44-4.92-4.32-8.08-5.63-3.17-1.31-6.7-1.97-10.6-1.97s-7.39.66-10.55,1.97c-3.17,1.31-5.87,3.19-8.11,5.63-2.24,2.44-3.96,5.43-5.18,8.96s-1.82,7.52-1.82,11.97.61,8.43,1.82,11.94,2.94,6.5,5.18,8.94c2.24,2.44,4.94,4.31,8.11,5.61,3.16,1.3,6.68,1.95,10.55,1.95s7.44-.65,10.6-1.95c3.16-1.29,5.86-3.16,8.08-5.61,2.22-2.44,3.94-5.42,5.15-8.94,1.21-3.52,1.82-7.5,1.82-11.94Z"/>
    <path d="m304.71,83.46c2.15-2.66,4.65-4.8,7.47-6.41,2.83-1.62,6.06-2.42,9.7-2.42,2.96,0,5.64.56,8.03,1.69,2.39,1.13,4.43,2.79,6.11,5,1.68,2.21,2.98,4.94,3.89,8.21.91,3.27,1.36,7.02,1.36,11.26,0,3.77-.5,7.28-1.52,10.53-1.01,3.25-2.47,6.06-4.37,8.43-1.9,2.37-4.23,4.24-6.97,5.61-2.74,1.36-5.83,2.04-9.27,2.04-3.13,0-5.82-.53-8.05-1.59-2.24-1.06-4.22-2.53-5.93-4.42v22.62h-9.04v-68.48h5.4c1.28,0,2.07.62,2.37,1.87l.81,6.06Zm.45,30.91c1.65,2.22,3.45,3.79,5.4,4.7,1.95.91,4.14,1.37,6.56,1.37,4.78,0,8.45-1.7,11.01-5.1,2.56-3.4,3.84-8.25,3.84-14.54,0-3.33-.3-6.19-.88-8.58-.59-2.39-1.44-4.35-2.55-5.88-1.11-1.53-2.47-2.65-4.09-3.36-1.62-.71-3.45-1.06-5.5-1.06-2.93,0-5.5.67-7.7,2.02-2.21,1.35-4.23,3.25-6.08,5.71v24.75Z"/>
    <path d="m394.25,119.52c-1.11,1.35-2.44,2.52-3.99,3.51-1.55.99-3.21,1.81-4.97,2.45-1.77.64-3.59,1.12-5.48,1.44-1.89.32-3.75.48-5.61.48-3.54,0-6.79-.6-9.77-1.79s-5.55-2.95-7.73-5.25c-2.17-2.31-3.86-5.16-5.08-8.56-1.21-3.4-1.82-7.3-1.82-11.71,0-3.57.55-6.9,1.64-10,1.09-3.1,2.67-5.78,4.72-8.06,2.05-2.27,4.56-4.06,7.52-5.35,2.96-1.3,6.29-1.94,10-1.94,3.06,0,5.9.51,8.51,1.54,2.61,1.03,4.86,2.51,6.77,4.44,1.9,1.94,3.39,4.33,4.47,7.17,1.08,2.85,1.62,6.08,1.62,9.72,0,1.41-.15,2.36-.45,2.83-.3.47-.88.71-1.72.71h-34.19c.1,3.23.55,6.04,1.34,8.43.79,2.39,1.89,4.39,3.31,5.98,1.41,1.6,3.1,2.79,5.05,3.58,1.95.79,4.14,1.19,6.56,1.19,2.26,0,4.2-.26,5.83-.78,1.63-.52,3.04-1.09,4.22-1.69,1.18-.61,2.16-1.17,2.95-1.69.79-.52,1.47-.78,2.05-.78.74,0,1.31.29,1.72.86l2.52,3.28Zm-7.27-23.99c0-2.09-.29-4-.88-5.73-.59-1.73-1.45-3.23-2.58-4.49-1.13-1.26-2.5-2.24-4.12-2.93-1.62-.69-3.45-1.04-5.5-1.04-4.31,0-7.72,1.25-10.23,3.76-2.51,2.51-4.07,5.98-4.67,10.43h27.98Z"/>
    <path d="m414.6,85.78c1.62-3.5,3.6-6.24,5.96-8.21,2.36-1.97,5.23-2.95,8.63-2.95,1.08,0,2.11.12,3.11.35.99.24,1.88.61,2.65,1.11l-.66,6.72c-.2.84-.71,1.26-1.51,1.26-.47,0-1.16-.1-2.07-.3-.91-.2-1.94-.3-3.08-.3-1.62,0-3.05.24-4.32.71-1.26.47-2.39,1.17-3.38,2.1-.99.93-1.89,2.07-2.68,3.43-.79,1.36-1.51,2.92-2.15,4.67v32.32h-9.04v-51.16h5.15c.98,0,1.65.19,2.02.56.37.37.62,1.01.76,1.92l.61,7.78Z"/>
    <path d="m440.71,82.75c2.83-2.73,5.87-4.76,9.14-6.11,3.26-1.35,6.88-2.02,10.86-2.02,2.86,0,5.4.47,7.62,1.41,2.22.94,4.09,2.26,5.61,3.94,1.52,1.68,2.66,3.72,3.43,6.11.77,2.39,1.16,5.02,1.16,7.88v32.72h-3.99c-.88,0-1.55-.14-2.02-.43-.47-.29-.84-.85-1.11-1.69l-1.01-4.85c-1.35,1.25-2.66,2.35-3.94,3.31-1.28.96-2.63,1.77-4.04,2.42s-2.92,1.16-4.52,1.52c-1.6.35-3.38.53-5.33.53s-3.86-.28-5.61-.83c-1.75-.56-3.27-1.39-4.57-2.5s-2.32-2.52-3.08-4.22c-.76-1.7-1.14-3.71-1.14-6.04,0-2.02.56-3.96,1.67-5.83,1.11-1.87,2.91-3.53,5.4-4.97,2.49-1.45,5.74-2.63,9.75-3.56,4.01-.93,8.92-1.46,14.75-1.59v-3.99c0-3.97-.86-6.98-2.58-9.01-1.72-2.04-4.23-3.06-7.52-3.06-2.22,0-4.08.28-5.58.83-1.5.56-2.79,1.18-3.89,1.87-1.09.69-2.04,1.31-2.83,1.87-.79.56-1.57.83-2.35.83-.61,0-1.13-.16-1.57-.48-.44-.32-.81-.71-1.11-1.19l-1.62-2.88Zm29.04,20.91c-4.14.13-7.67.46-10.58.98-2.91.52-5.29,1.2-7.12,2.05s-3.17,1.83-3.99,2.98c-.83,1.15-1.24,2.42-1.24,3.84s.22,2.51.66,3.49c.44.98,1.04,1.78,1.79,2.4s1.65,1.08,2.68,1.36c1.03.29,2.13.43,3.31.43,1.58,0,3.03-.16,4.34-.48,1.31-.32,2.55-.78,3.71-1.39s2.27-1.33,3.33-2.17,2.1-1.8,3.11-2.88v-10.6Z"/>
    <path d="m539.03,126.69h-8.99v-43.63h-26.36v30.7c0,2.16.52,3.75,1.57,4.8s2.39,1.56,4.04,1.56c.94,0,1.76-.12,2.45-.38.69-.25,1.29-.53,1.79-.83s.93-.58,1.29-.83c.35-.25.66-.38.93-.38.47,0,.89.29,1.26.86l2.63,4.29c-1.55,1.45-3.42,2.58-5.61,3.41s-4.44,1.24-6.77,1.24c-4.04,0-7.15-1.13-9.32-3.38s-3.26-5.5-3.26-9.75v-31.31h-6.16c-.54,0-.99-.16-1.36-.48-.37-.32-.55-.82-.55-1.49v-3.59l8.38-1.11,2.07-15.76c.1-.5.33-.92.68-1.24.35-.32.82-.48,1.39-.48h4.54v17.62h35.35v50.15Zm2.22-67.57c0,.88-.18,1.69-.53,2.45-.35.76-.83,1.42-1.41,1.99-.59.57-1.27,1.03-2.04,1.36-.78.34-1.6.51-2.47.51s-1.69-.17-2.45-.51c-.76-.34-1.42-.79-2-1.36-.57-.57-1.03-1.24-1.36-1.99-.34-.76-.5-1.57-.5-2.45s.17-1.71.5-2.5c.34-.79.79-1.48,1.36-2.07.57-.59,1.24-1.05,2-1.39.76-.34,1.57-.51,2.45-.51s1.7.17,2.47.51c.77.34,1.46.8,2.04,1.39.59.59,1.06,1.28,1.41,2.07.35.79.53,1.62.53,2.5Z"/>
    <path d="m597.61,75.53l-20.86,51.16h-8.08l-20.86-51.16h7.32c.74,0,1.35.19,1.82.56.47.37.79.81.96,1.31l12.98,32.93c.4,1.25.76,2.46,1.06,3.64.3,1.18.59,2.36.86,3.54.27-1.18.56-2.36.86-3.54.3-1.18.67-2.39,1.11-3.64l13.13-32.93c.2-.54.54-.98,1.01-1.34.47-.35,1.03-.53,1.67-.53h7.02Z"/>
    <path d="m645.99,119.52c-1.11,1.35-2.44,2.52-3.99,3.51-1.55.99-3.21,1.81-4.97,2.45-1.77.64-3.59,1.12-5.48,1.44-1.89.32-3.75.48-5.61.48-3.54,0-6.79-.6-9.77-1.79s-5.56-2.95-7.73-5.25c-2.17-2.31-3.86-5.16-5.08-8.56-1.21-3.4-1.82-7.3-1.82-11.71,0-3.57.55-6.9,1.64-10,1.09-3.1,2.67-5.78,4.72-8.06,2.05-2.27,4.56-4.06,7.52-5.35,2.96-1.3,6.29-1.94,10-1.94,3.06,0,5.9.51,8.51,1.54,2.61,1.03,4.87,2.51,6.77,4.44,1.9,1.94,3.39,4.33,4.47,7.17,1.08,2.85,1.62,6.08,1.62,9.72,0,1.41-.15,2.36-.45,2.83-.3.47-.88.71-1.72.71h-34.19c.1,3.23.55,6.04,1.34,8.43.79,2.39,1.89,4.39,3.31,5.98,1.41,1.6,3.1,2.79,5.05,3.58,1.95.79,4.14,1.19,6.57,1.19,2.25,0,4.2-.26,5.83-.78,1.63-.52,3.04-1.09,4.22-1.69s2.16-1.17,2.96-1.69c.79-.52,1.47-.78,2.04-.78.74,0,1.31.29,1.72.86l2.53,3.28Zm-7.27-23.99c0-2.09-.29-4-.88-5.73-.59-1.73-1.45-3.23-2.58-4.49-1.13-1.26-2.5-2.24-4.12-2.93-1.62-.69-3.45-1.04-5.5-1.04-4.31,0-7.72,1.25-10.23,3.76-2.51,2.51-4.07,5.98-4.67,10.43h27.98Z"/>
    <path d="m718.06,126.69h-7.58c-.88,0-1.58-.22-2.12-.66-.54-.44-.94-.99-1.21-1.67l-6.77-17.47h-32.47l-6.77,17.47c-.2.61-.59,1.15-1.16,1.62-.57.47-1.28.71-2.12.71h-7.58l28.94-72.37h9.9l28.94,72.37Zm-20.4-26.87l-11.36-29.44c-.34-.88-.69-1.89-1.06-3.06-.37-1.16-.72-2.4-1.06-3.71-.71,2.73-1.43,5-2.17,6.82l-11.36,29.39h27.02Z"/>
    <path d="m737.4,126.69h-9.8V54.32h9.8v72.37Z"/>
  </g>
</svg>